<svg width="137" height="71" viewBox="0 0 137 71" fill="none" xmlns="http://www.w3.org/2000/svg">
<mask id="mask0_1_169" style="mask-type:luminance" maskUnits="userSpaceOnUse" x="18" y="1" width="10" height="35">
<path d="M18.4883 1.61328H27.7734V35.5391H18.4883V1.61328Z" fill="white"/>
</mask>
<g mask="url(#mask0_1_169)">
<path d="M18.4883 1.61328H27.7734V35.5352H18.4883V1.61328Z" fill="#FF1616"/>
</g>
<mask id="mask1_1_169" style="mask-type:luminance" maskUnits="userSpaceOnUse" x="102" y="1" width="10" height="33">
<path d="M102.004 1.16016H111.105V33.9453H102.004V1.16016Z" fill="white"/>
</mask>
<g mask="url(#mask1_1_169)">
<path d="M102.004 1.16016H111.105V33.9414H102.004V1.16016Z" fill="#FF1616"/>
</g>
<mask id="mask2_1_169" style="mask-type:luminance" maskUnits="userSpaceOnUse" x="101" y="26" width="25" height="10">
<path d="M101.977 26.1562H125.926V35.3906H101.977V26.1562Z" fill="white"/>
</mask>
<g mask="url(#mask2_1_169)">
<mask id="mask3_1_169" style="mask-type:luminance" maskUnits="userSpaceOnUse" x="102" y="26" width="24" height="10">
<path d="M122.609 26.1562H102V35.3906H125.926L122.609 26.1562Z" fill="white"/>
</mask>
<g mask="url(#mask3_1_169)">
<path d="M125.926 26.1562V35.3906H102.012V26.1562H125.926Z" fill="#FF1616"/>
</g>
</g>
<mask id="mask4_1_169" style="mask-type:luminance" maskUnits="userSpaceOnUse" x="12" y="1" width="100" height="12">
<path d="M12.9805 1H111.105V12.2148H12.9805V1Z" fill="white"/>
</mask>
<g mask="url(#mask4_1_169)">
<path d="M12.9805 1H111.117V12.2148H12.9805V1Z" fill="#FF1616"/>
</g>
<mask id="mask5_1_169" style="mask-type:luminance" maskUnits="userSpaceOnUse" x="5" y="1" width="16" height="12">
<path d="M5 1.16016H20.9961V12.6953H5V1.16016Z" fill="white"/>
</mask>
<g mask="url(#mask5_1_169)">
<mask id="mask6_1_169" style="mask-type:luminance" maskUnits="userSpaceOnUse" x="5" y="1" width="16" height="12">
<path d="M12.9805 1.16016L20.957 12.6953H5L12.9805 1.16016Z" fill="white"/>
</mask>
<g mask="url(#mask6_1_169)">
<path d="M5 1.16016H20.9492V12.6953H5V1.16016Z" fill="#FF1616"/>
</g>
</g>
<path d="M34.6797 25.6953L33.7578 28.6953H36.8672L35.9297 25.6953C35.875 25.5703 35.8203 25.4844 35.7578 25.4297C35.7031 25.3789 35.6367 25.3516 35.5547 25.3516H35.0547C34.9805 25.3516 34.9141 25.3789 34.8516 25.4297C34.7969 25.4844 34.7422 25.5703 34.6797 25.6953ZM33.5547 35.0547C33.5547 35.3047 33.4961 35.4883 33.3828 35.6016C33.2773 35.7188 33.1016 35.7734 32.8516 35.7734H29.9453C29.6953 35.7734 29.5117 35.7188 29.3984 35.6016C29.2813 35.4883 29.2266 35.3047 29.2266 35.0547V29.8516C29.2266 29.457 29.2891 29.0039 29.4141 28.4922C29.5391 27.9727 29.7344 27.3672 30.0078 26.6797L31.7266 22.1953C31.7969 21.9687 31.918 21.8008 32.0859 21.6953C32.25 21.5937 32.4648 21.5391 32.7266 21.5391H38.0391C38.2969 21.5391 38.5078 21.5937 38.6641 21.6953C38.8281 21.8008 38.9531 21.9687 39.0391 22.1953L40.7578 26.6797C41.0156 27.3672 41.2109 27.9727 41.3359 28.4922C41.4609 29.0039 41.5234 29.457 41.5234 29.8516V35.0547C41.5234 35.3047 41.4648 35.4883 41.3516 35.6016C41.2461 35.7188 41.0703 35.7734 40.8203 35.7734H37.8359C37.5625 35.7734 37.3672 35.7188 37.2422 35.6016C37.1172 35.4883 37.0547 35.3047 37.0547 35.0547V32.2891H33.5547V35.0547Z" fill="black"/>
<path d="M56.4453 32.0391C56.4453 32.6445 56.3555 33.1953 56.1797 33.6953C56 34.1875 55.6836 34.6094 55.2266 34.9609C54.7656 35.3047 54.1406 35.5781 53.3516 35.7734C52.5586 35.9687 51.5547 36.0703 50.3359 36.0703C49.1055 36.0703 48.0937 35.9687 47.3047 35.7734C46.5117 35.5781 45.8867 35.3047 45.4297 34.9609C44.9805 34.6094 44.668 34.1875 44.4922 33.6953C44.3125 33.1953 44.2266 32.6445 44.2266 32.0391V22.2578C44.2266 22.0078 44.2773 21.8281 44.3828 21.7109C44.4961 21.5977 44.6797 21.5391 44.9297 21.5391H48.0391C48.2891 21.5391 48.4687 21.5977 48.5859 21.7109C48.6992 21.8281 48.7578 22.0078 48.7578 22.2578V31.2734C48.7578 31.5352 48.8555 31.7539 49.0547 31.9297C49.25 32.1094 49.6875 32.1953 50.3672 32.1953C51.0625 32.1953 51.5117 32.1094 51.7109 31.9297C51.9062 31.7539 52.0078 31.5352 52.0078 31.2734V22.2578C52.0078 22.0078 52.0625 21.8281 52.1797 21.7109C52.293 21.5977 52.4766 21.5391 52.7266 21.5391H55.7266C55.9766 21.5391 56.1562 21.5977 56.2734 21.7109C56.3867 21.8281 56.4453 22.0078 56.4453 22.2578V32.0391Z" fill="black"/>
<path d="M67.0631 35.7734H59.9903C59.7246 35.7734 59.5296 35.7188 59.4092 35.6016C59.2847 35.4883 59.2266 35.3047 59.2266 35.0547V22.2578C59.2266 22.0078 59.2847 21.8281 59.4092 21.7109C59.5296 21.5977 59.7246 21.5391 59.9903 21.5391H67.0631C68.8105 21.5391 70.1056 21.875 70.9481 22.5391C71.799 23.1953 72.2266 24.207 72.2266 25.5703V31.7422C72.2266 33.1172 71.799 34.1328 70.9481 34.7891C70.1056 35.4453 68.8105 35.7734 67.0631 35.7734ZM63.9916 25.3203V32.0391H66.4986C66.8306 32.0391 67.0714 31.9609 67.2291 31.8047C67.3951 31.6484 67.4782 31.4062 67.4782 31.0703V26.2734C67.4782 25.9414 67.3951 25.7031 67.2291 25.5547C67.0714 25.3984 66.8306 25.3203 66.4986 25.3203H63.9916Z" fill="black"/>
<path d="M75.9453 35.7734C75.6953 35.7734 75.5117 35.7188 75.3984 35.6016C75.2812 35.4883 75.2266 35.3047 75.2266 35.0547V32.7109C75.2266 32.4609 75.2812 32.2812 75.3984 32.1641C75.5117 32.0508 75.6953 31.9922 75.9453 31.9922H77.8984V25.3516H75.9453C75.6953 25.3516 75.5117 25.3008 75.3984 25.1953C75.2812 25.082 75.2266 24.8984 75.2266 24.6484V22.2578C75.2266 22.0078 75.2812 21.8281 75.3984 21.7109C75.5117 21.5977 75.6953 21.5391 75.9453 21.5391H84.3516C84.6094 21.5391 84.793 21.5977 84.8984 21.7109C85.0117 21.8281 85.0703 22.0078 85.0703 22.2578V24.6484C85.0703 24.8984 85.0117 25.082 84.8984 25.1953C84.793 25.3008 84.6094 25.3516 84.3516 25.3516H82.4453V31.9922H84.3516C84.6094 31.9922 84.793 32.0508 84.8984 32.1641C85.0117 32.2812 85.0703 32.4609 85.0703 32.7109V35.0547C85.0703 35.3047 85.0117 35.4883 84.8984 35.6016C84.793 35.7188 84.6094 35.7734 84.3516 35.7734H75.9453Z" fill="black"/>
<path d="M100.508 32.3359C100.508 32.9414 100.418 33.4922 100.242 33.9922C100.062 34.4844 99.7461 34.9063 99.2891 35.2578C98.8281 35.6016 98.1992 35.875 97.3984 36.0703C96.6055 36.2656 95.6016 36.3672 94.3828 36.3672C93.1523 36.3672 92.1367 36.2656 91.3359 36.0703C90.5312 35.875 89.9023 35.6016 89.4453 35.2578C88.9961 34.9063 88.6797 34.4844 88.4922 33.9922C88.3125 33.4922 88.2266 32.9414 88.2266 32.3359V25.6016C88.2266 24.9883 88.3125 24.4375 88.4922 23.9453C88.6797 23.4453 88.9961 23.0195 89.4453 22.6641C89.9023 22.3125 90.5312 22.0352 91.3359 21.8359C92.1367 21.6406 93.1523 21.5391 94.3828 21.5391C95.6016 21.5391 96.6055 21.6406 97.3984 21.8359C98.1992 22.0352 98.8281 22.3125 99.2891 22.6641C99.7461 23.0195 100.062 23.4453 100.242 23.9453C100.418 24.4375 100.508 24.9883 100.508 25.6016V32.3359ZM92.7266 31.6172C92.7266 31.8906 92.8203 32.1133 93.0078 32.2891C93.2031 32.4688 93.6641 32.5547 94.3828 32.5547C95.0898 32.5547 95.543 32.4688 95.7422 32.2891C95.9375 32.1133 96.0391 31.8906 96.0391 31.6172V26.3047C96.0391 26.0547 95.9375 25.8438 95.7422 25.6641C95.543 25.4883 95.0898 25.3984 94.3828 25.3984C93.6641 25.3984 93.2031 25.4883 93.0078 25.6641C92.8203 25.8438 92.7266 26.0547 92.7266 26.3047V31.6172Z" fill="black"/>
<path d="M17.0312 42.9219C16.6445 42.9219 16.4531 43.1719 16.4531 43.6719V49.8906C16.4531 50.4766 16.6016 50.9023 16.9062 51.1719C17.207 51.4336 17.6133 51.5625 18.125 51.5625H19.9688V52.2188H6.9375V51.5625H8.79688C9.29688 51.5625 9.69531 51.4336 10 51.1719C10.3008 50.9023 10.4531 50.4766 10.4531 49.8906V43.6719C10.4531 43.1719 10.2578 42.9219 9.875 42.9219C9.70703 42.9219 9.46875 43.0547 9.15625 43.3125C8.84375 43.5625 8.52344 43.8672 8.20312 44.2188C7.56641 44.9375 7.02344 45.6094 6.57812 46.2344L6.29688 46.625H6V42.25H21.1719V46.625H20.5938C20.4258 46.3867 20.1328 46.0078 19.7188 45.4844C19.3125 44.9648 18.9609 44.543 18.6719 44.2188C18.3789 43.8867 18.0781 43.5898 17.7656 43.3281C17.4531 43.0586 17.207 42.9219 17.0312 42.9219ZM12.4844 51.5625V42.9062H11.4844V51.5625H12.4844Z" fill="black"/>
<path d="M43.5621 51.5625V52.2188H32.0309V51.5625H33.1715C33.4293 51.5625 33.6441 51.5078 33.8121 51.3906C33.9879 51.2656 34.0777 51.0898 34.0777 50.8594C34.0777 50.6211 33.9254 50.3203 33.6246 49.9531L33.0621 49.2344H26.2652C25.9605 49.7031 25.8121 50.1172 25.8121 50.4688C25.8121 50.8125 25.9215 51.0859 26.1402 51.2812C26.359 51.4688 26.6324 51.5625 26.9684 51.5625H28.3902V52.2188H21.7027V51.5625C22.023 51.5625 22.359 51.4844 22.7027 51.3281C23.0465 51.1641 23.3512 50.9688 23.6246 50.75C23.8941 50.5234 24.1402 50.293 24.359 50.0625C24.5855 49.8242 24.7574 49.625 24.8746 49.4688C24.9879 49.3125 25.0465 49.2344 25.0465 49.2344L28.9996 44.2031L28.609 43.7344C28.3668 43.4336 28.1129 43.2188 27.8434 43.0938C27.5699 42.9688 27.1949 42.9062 26.7184 42.9062H25.5152V42.25H34.2809L41.8121 51.5625H43.5621ZM26.8434 48.5H32.484L29.5934 44.9531L26.8434 48.5ZM36.1559 51.5625H37.3434L30.359 42.9062H29.1715L36.1559 51.5625ZM35.0152 40.6875V41.2344H34.1871C31.4137 41.2344 29.6324 41.1406 28.8434 40.9531C28.1129 40.7969 27.5699 40.5 27.2184 40.0625C26.8746 39.6797 26.6715 39.3711 26.609 39.1406L26.5777 39H31.0309C31.4566 39.5859 31.9449 40.0117 32.4996 40.2812C33.0621 40.5547 33.898 40.6875 35.0152 40.6875ZM30.2184 40.6406V40.5781C29.9371 40.4844 29.6402 40.3359 29.3277 40.125C29.0152 39.918 28.7965 39.6836 28.6715 39.4219H27.6871C28.1949 40.1719 29.0387 40.5781 30.2184 40.6406Z" fill="black"/>
<path d="M54.0099 44.5938V49.9062C54.0099 50.4805 54.1584 50.9023 54.463 51.1719C54.7638 51.4336 55.1701 51.5625 55.6818 51.5625H57.5255V52.2188H44.4787V51.5625H46.338C46.8459 51.5625 47.2521 51.4336 47.5568 51.1719C47.8693 50.9023 48.0255 50.4805 48.0255 49.9062V44.5938C48.0255 44.1367 47.8576 43.7422 47.5255 43.4062C47.2013 43.0742 46.8068 42.9062 46.338 42.9062H44.4787V42.25H57.5255V42.9062H55.6818C55.213 42.9062 54.8146 43.0742 54.4943 43.4062C54.1701 43.7422 54.0099 44.1367 54.0099 44.5938ZM50.0412 51.5625V42.9062H49.0412V51.5625H50.0412Z" fill="black"/>
<path d="M69.5538 46.9531V48.1875H61.2725V46.9531H69.5538Z" fill="black"/>
<path d="M80.7191 44.5938V49.9062C80.7191 51.0117 81.2737 51.5625 82.3909 51.5625C83.2425 51.5625 84.1761 51.3281 85.1878 50.8594C85.7269 50.6016 86.2894 50.2109 86.8753 49.6875C87.4573 49.168 88.0081 48.5391 88.5316 47.7969H89.0628V52.2188H71.2191V51.5625H73.0628C73.5628 51.5625 73.9612 51.4336 74.2659 51.1719C74.5667 50.9141 74.7191 50.4922 74.7191 49.9062V44.5938C74.7191 44.1367 74.555 43.7422 74.2347 43.4062C73.9105 43.0742 73.5198 42.9062 73.0628 42.9062H71.2191V42.25H84.9534V42.9062H82.3909C81.9222 42.9062 81.5237 43.0742 81.2034 43.4062C80.8792 43.7422 80.7191 44.1367 80.7191 44.5938ZM76.7503 51.5625V42.9062H75.7503V51.5625H76.7503Z" fill="black"/>
<path d="M109.537 47.2344C109.537 48.1953 109.088 49.0859 108.193 49.9062C107.306 50.7188 106.099 51.3672 104.568 51.8438C103.045 52.3203 101.381 52.5625 99.5682 52.5625C97.7557 52.5625 96.0838 52.3203 94.5526 51.8438C93.0213 51.3672 91.8104 50.7188 90.9276 49.9062C90.0408 49.0859 89.5994 48.1953 89.5994 47.2344C89.5994 45.7266 90.5096 44.4648 92.3338 43.4531C94.1658 42.4453 96.576 41.9375 99.5682 41.9375C102.556 41.9375 104.963 42.4453 106.787 43.4531C108.619 44.4648 109.537 45.7266 109.537 47.2344ZM102.74 47.1719C102.74 45.6016 102.51 44.4375 102.053 43.6875C101.603 42.9375 100.775 42.5625 99.5682 42.5625C98.369 42.5625 97.5408 42.9453 97.0838 43.7031C96.6229 44.4531 96.3963 45.6172 96.3963 47.1875C96.3963 48.75 96.6698 49.9336 97.2244 50.7344C97.7752 51.5273 98.5565 51.9219 99.5682 51.9219C100.576 51.9219 101.357 51.5273 101.912 50.7344C102.463 49.9336 102.74 48.7461 102.74 47.1719ZM92.5213 49.75C91.8651 48.9805 91.5369 48.1406 91.5369 47.2344C91.5369 46.3203 91.869 45.4805 92.5369 44.7188C93.2127 43.9492 94.1073 43.3438 95.2244 42.9062L95.2088 42.8438C93.7596 43.2734 92.5994 43.875 91.7244 44.6562C90.8573 45.4375 90.4276 46.2969 90.4276 47.2344C90.4276 48.1641 90.8533 49.0117 91.7088 49.7812C92.5604 50.5547 93.7088 51.1641 95.1463 51.6094L95.1619 51.5469C94.0565 51.1094 93.1776 50.5117 92.5213 49.75ZM104.615 49.5625C104.959 48.8047 105.131 48.0273 105.131 47.2344C105.131 46.4336 104.959 45.6562 104.615 44.9062C104.271 44.1562 103.803 43.5117 103.209 42.9688L103.115 43C103.697 44.4375 103.99 45.8516 103.99 47.2344C103.99 48.6094 103.697 50.0234 103.115 51.4688L103.209 51.5C103.803 50.9609 104.271 50.3125 104.615 49.5625ZM97.0994 39H102.068L104.115 41.2344H102.771L101.193 39.5156L99.5994 41.2344H95.0369L97.0994 39ZM98.8494 39.375H97.8963L96.7401 40.6562H97.6932L98.8494 39.375Z" fill="black"/>
<path d="M120.109 52.5625C117.367 52.5625 115.066 52.1406 113.203 51.2969C112.273 50.8906 111.546 50.3359 111.015 49.625C110.492 48.918 110.234 48.1055 110.234 47.1875C110.234 46.2734 110.515 45.4609 111.078 44.75C111.64 44.0312 112.378 43.4766 113.296 43.0781C115.16 42.2773 117.249 41.875 119.562 41.875C121.144 41.875 122.976 42.2578 125.062 43.0156V42.25H125.796V45.9062H125.062C124.624 45.0859 123.863 44.3203 122.781 43.6094C121.707 42.9023 120.609 42.5469 119.484 42.5469C118.64 42.5469 118.039 42.7461 117.687 43.1406C117.332 43.5391 117.156 44.0859 117.156 44.7812V48.9844C117.156 50.0273 117.378 50.7773 117.828 51.2344C118.273 51.6836 118.992 51.9062 119.984 51.9062C120.984 51.9062 121.867 51.8125 122.64 51.625C123.421 51.4297 124.015 51.2109 124.421 50.9688C124.828 50.7305 125.191 50.5156 125.515 50.3281C125.847 50.1328 126.062 50.0312 126.156 50.0312C126.394 50.0312 126.515 50.1328 126.515 50.3281C126.515 50.6211 125.984 51.0391 124.921 51.5781C123.597 52.2344 121.992 52.5625 120.109 52.5625ZM115.374 51.2344C114.437 50.8398 113.675 50.3125 113.093 49.6562C112.507 48.9922 112.218 48.1875 112.218 47.25C112.218 46.3047 112.507 45.4688 113.093 44.75C113.675 44.0234 114.437 43.4453 115.374 43.0156L115.359 42.9375C114.109 43.2812 113.093 43.8555 112.312 44.6562C111.531 45.4492 111.14 46.3125 111.14 47.25C111.14 48.1797 111.523 49.0078 112.296 49.7344C113.078 50.4648 114.097 50.9922 115.359 51.3125L115.374 51.2344Z" fill="black"/>
<path d="M100.539 55.7751C100.172 55.7751 99.8597 55.6735 99.6019 55.4782C99.3519 55.2712 99.2269 54.9001 99.2269 54.3688C99.2269 53.8298 99.3519 53.4587 99.6019 53.2595C99.8597 53.0641 100.172 52.9626 100.539 52.9626C100.891 52.9626 101.2 53.0641 101.461 53.2595C101.719 53.4587 101.852 53.8298 101.852 54.3688C101.852 54.9001 101.719 55.2712 101.461 55.4782C101.2 55.6735 100.891 55.7751 100.539 55.7751Z" fill="black"/>
<mask id="mask7_1_169" style="mask-type:luminance" maskUnits="userSpaceOnUse" x="6" y="65" width="124" height="2">
<path d="M6 65H130V65.0039H6V65ZM69.6602 65.0039H130V66.6836H69.6602V65.0039ZM6 65.0039H66.4688V66.6836H6V65.0039ZM6 66.6836H130V67H6V66.6836Z" fill="white"/>
</mask>
<g mask="url(#mask7_1_169)">
<path d="M6.95703 65.3867H129.25V66.1484H6.95703V65.3867Z" fill="black"/>
</g>
<path d="M8.98998 61.9051L9.58373 61.1395L10.9744 59.6238H12.5212L10.5369 61.7957L12.6306 64.6238H11.0681L9.63061 62.5926L9.03686 63.0613V64.6238H7.67748V57.6707H9.03686V60.7645L8.95873 61.9051H8.98998Z" fill="black"/>
<path d="M16.5232 64.6238L16.2576 63.952H16.2263C15.9959 64.2332 15.7576 64.4324 15.5076 64.5457C15.2654 64.659 14.9529 64.7176 14.5701 64.7176C14.0896 64.7176 13.7107 64.5848 13.4295 64.3113C13.156 64.0301 13.0232 63.6356 13.0232 63.1238C13.0232 62.5926 13.2029 62.202 13.5701 61.952C13.9451 61.702 14.5076 61.5692 15.2576 61.5457L16.117 61.5145V61.2957C16.117 60.7879 15.8552 60.5301 15.3357 60.5301C14.9373 60.5301 14.4685 60.6512 13.9295 60.8895L13.4763 59.9676C14.0584 59.6785 14.699 59.5301 15.3982 59.5301C16.0623 59.5301 16.574 59.6785 16.9295 59.9676C17.2927 60.2606 17.4763 60.702 17.4763 61.2957V64.6238H16.5232ZM16.117 62.3113L15.5857 62.327C15.1873 62.3387 14.8904 62.4129 14.6951 62.5457C14.5076 62.6707 14.4138 62.8699 14.4138 63.1395C14.4138 63.5262 14.6365 63.7176 15.0857 63.7176C15.3982 63.7176 15.6482 63.6317 15.8357 63.452C16.0232 63.2645 16.117 63.0223 16.117 62.7176V62.3113Z" fill="black"/>
<path d="M21.659 59.5301C21.8465 59.5301 22.0028 59.5457 22.1278 59.577L22.0184 60.8582C21.9129 60.827 21.7762 60.8113 21.6121 60.8113C21.1824 60.8113 20.8465 60.9285 20.5965 61.1551C20.3543 61.3738 20.2371 61.6824 20.2371 62.077V64.6238H18.8778V59.6238H19.909L20.1121 60.4676H20.1746C20.3309 60.1863 20.5379 59.9637 20.7996 59.7957C21.0692 59.6199 21.3543 59.5301 21.659 59.5301Z" fill="black"/>
<path d="M26.2045 64.6238L25.9389 63.952H25.9076C25.6772 64.2332 25.4389 64.4324 25.1889 64.5457C24.9467 64.659 24.6342 64.7176 24.2514 64.7176C23.7709 64.7176 23.392 64.5848 23.1107 64.3113C22.8373 64.0301 22.7045 63.6356 22.7045 63.1238C22.7045 62.5926 22.8842 62.202 23.2514 61.952C23.6264 61.702 24.1889 61.5692 24.9389 61.5457L25.7982 61.5145V61.2957C25.7982 60.7879 25.5365 60.5301 25.017 60.5301C24.6186 60.5301 24.1498 60.6512 23.6107 60.8895L23.1576 59.9676C23.7397 59.6785 24.3803 59.5301 25.0795 59.5301C25.7436 59.5301 26.2553 59.6785 26.6107 59.9676C26.974 60.2606 27.1576 60.702 27.1576 61.2957V64.6238H26.2045ZM25.7982 62.3113L25.267 62.327C24.8686 62.3387 24.5717 62.4129 24.3764 62.5457C24.1889 62.6707 24.0951 62.8699 24.0951 63.1395C24.0951 63.5262 24.3178 63.7176 24.767 63.7176C25.0795 63.7176 25.3295 63.6317 25.517 63.452C25.7045 63.2645 25.7982 63.0223 25.7982 62.7176V62.3113Z" fill="black"/>
<path d="M29.6372 62.1082C29.6372 62.6082 29.7192 62.991 29.8872 63.2488C30.0512 63.4988 30.3169 63.6238 30.684 63.6238C31.0473 63.6238 31.309 63.4988 31.4653 63.2488C31.6215 62.991 31.6997 62.6082 31.6997 62.1082C31.6997 61.6199 31.6137 61.2488 31.4497 60.9988C31.2934 60.7488 31.0317 60.6238 30.6684 60.6238C30.3012 60.6238 30.0356 60.7488 29.8715 60.9988C29.7153 61.2488 29.6372 61.6199 29.6372 62.1082ZM33.0903 62.1082C33.0903 62.9324 32.8754 63.5731 32.4497 64.0301C32.02 64.491 31.4262 64.7176 30.6684 64.7176C30.1762 64.7176 29.7504 64.616 29.3872 64.4051C29.02 64.1863 28.7387 63.8856 28.5434 63.4988C28.3442 63.1043 28.2465 62.6395 28.2465 62.1082C28.2465 61.2957 28.4575 60.6668 28.8872 60.2176C29.3129 59.7606 29.9106 59.5301 30.684 59.5301C31.1606 59.5301 31.5825 59.6356 31.9497 59.8426C32.3247 60.0535 32.6059 60.3543 32.7934 60.7488C32.9887 61.1356 33.0903 61.5887 33.0903 62.1082Z" fill="black"/>
<path d="M35.5365 61.9051L36.1302 61.1395L37.5208 59.6238H39.0677L37.0833 61.7957L39.1771 64.6238H37.6146L36.1771 62.5926L35.5833 63.0613V64.6238H34.224V57.6707H35.5833V60.7645L35.5052 61.9051H35.5365Z" fill="black"/>
<path d="M41.9603 60.4988C41.6791 60.4988 41.4525 60.5926 41.2884 60.7801C41.1205 60.9598 41.0267 61.2176 41.0072 61.5613H42.9134C42.9134 61.2176 42.8236 60.9598 42.6478 60.7801C42.4798 60.5926 42.2494 60.4988 41.9603 60.4988ZM42.1634 64.7176C41.3509 64.7176 40.7142 64.4949 40.2572 64.0457C39.808 63.6004 39.5853 62.9676 39.5853 62.1551C39.5853 61.3231 39.7923 60.6785 40.2103 60.2176C40.6361 59.7606 41.2181 59.5301 41.9603 59.5301C42.6673 59.5301 43.2142 59.7332 43.6009 60.1395C43.9955 60.5379 44.1947 61.0887 44.1947 61.7957V62.4676H40.9759C40.9837 62.8543 41.0931 63.1551 41.3041 63.3738C41.5228 63.5926 41.8275 63.702 42.2259 63.702C42.515 63.702 42.7962 63.6707 43.0697 63.6082C43.3392 63.5457 43.6205 63.4481 43.9134 63.3113V64.3582C43.6712 64.4832 43.4173 64.5731 43.1478 64.6238C42.8744 64.6863 42.5462 64.7176 42.1634 64.7176Z" fill="black"/>
<path d="M50.8522 64.6238L50.5866 63.952H50.5554C50.3249 64.2332 50.0866 64.4324 49.8366 64.5457C49.5944 64.659 49.2819 64.7176 48.8991 64.7176C48.4186 64.7176 48.0397 64.5848 47.7585 64.3113C47.4851 64.0301 47.3522 63.6356 47.3522 63.1238C47.3522 62.5926 47.5319 62.202 47.8991 61.952C48.2741 61.702 48.8366 61.5692 49.5866 61.5457L50.446 61.5145V61.2957C50.446 60.7879 50.1843 60.5301 49.6647 60.5301C49.2663 60.5301 48.7976 60.6512 48.2585 60.8895L47.8054 59.9676C48.3874 59.6785 49.028 59.5301 49.7272 59.5301C50.3913 59.5301 50.903 59.6785 51.2585 59.9676C51.6218 60.2606 51.8054 60.702 51.8054 61.2957V64.6238H50.8522ZM50.446 62.3113L49.9147 62.327C49.5163 62.3387 49.2194 62.4129 49.0241 62.5457C48.8366 62.6707 48.7429 62.8699 48.7429 63.1395C48.7429 63.5262 48.9655 63.7176 49.4147 63.7176C49.7272 63.7176 49.9772 63.6317 50.1647 63.452C50.3522 63.2645 50.446 63.0223 50.446 62.7176V62.3113Z" fill="black"/>
<path d="M57.8162 64.6238H56.4568V61.702C56.4568 61.3504 56.3865 61.0848 56.2537 60.9051C56.1287 60.7176 55.9255 60.6238 55.6443 60.6238C55.2693 60.6238 54.9919 60.7567 54.8162 61.0145C54.6482 61.2645 54.5662 61.6824 54.5662 62.2645V64.6238H53.2068V59.6238H54.238L54.4255 60.2645H54.5037C54.6599 60.0262 54.8669 59.8426 55.1287 59.7176C55.3982 59.5926 55.699 59.5301 56.0349 59.5301C56.6169 59.5301 57.0583 59.6863 57.363 59.9988C57.6638 60.3113 57.8162 60.7645 57.8162 61.3582V64.6238Z" fill="black"/>
<path d="M60.7983 64.7176C60.2124 64.7176 59.7514 64.491 59.4077 64.0301C59.0717 63.5731 58.9077 62.9442 58.9077 62.1395C58.9077 61.3192 59.0795 60.6785 59.4233 60.2176C59.767 59.7606 60.2358 59.5301 60.8295 59.5301C61.4624 59.5301 61.9428 59.7762 62.267 60.2645H62.3139C62.2514 59.8895 62.2202 59.5574 62.2202 59.2645V57.6707H63.5795V64.6238H62.5327L62.267 63.9832H62.2202C61.9077 64.4754 61.4311 64.7176 60.7983 64.7176ZM61.2827 63.6238C61.6264 63.6238 61.8764 63.5262 62.0327 63.327C62.1967 63.1199 62.2905 62.7762 62.3139 62.2957V62.1395C62.3139 61.6082 62.228 61.2293 62.0639 60.9988C61.896 60.7606 61.6264 60.6395 61.2514 60.6395C60.9467 60.6395 60.7124 60.7723 60.5483 61.0301C60.3803 61.2918 60.2983 61.6668 60.2983 62.1551C60.2983 62.6473 60.3803 63.0145 60.5483 63.2645C60.7124 63.5067 60.9585 63.6238 61.2827 63.6238Z" fill="black"/>
<path d="M70.1213 64.7176C69.5354 64.7176 69.0784 64.5067 68.7463 64.077H68.6682C68.719 64.4949 68.7463 64.7332 68.7463 64.7957V66.827H67.3869V59.6238H68.4963L68.6838 60.2801H68.7463C69.0666 59.7801 69.5432 59.5301 70.1682 59.5301C70.7502 59.5301 71.2073 59.7606 71.5432 60.2176C71.8869 60.6785 72.0588 61.3074 72.0588 62.1082C72.0588 62.6512 71.9729 63.1199 71.8088 63.5145C71.6526 63.9012 71.426 64.1981 71.1369 64.4051C70.8557 64.616 70.5159 64.7176 70.1213 64.7176ZM69.7307 60.6238C69.3869 60.6238 69.1369 60.7293 68.9807 60.9363C68.8323 61.1473 68.7541 61.4832 68.7463 61.952V62.1082C68.7463 62.6395 68.8244 63.0262 68.9807 63.2645C69.1448 63.4949 69.4026 63.6082 69.7463 63.6082C70.3596 63.6082 70.6682 63.1043 70.6682 62.0926C70.6682 61.6043 70.5901 61.241 70.4338 60.9988C70.2854 60.7488 70.051 60.6238 69.7307 60.6238Z" fill="black"/>
<path d="M75.9582 59.5301C76.1457 59.5301 76.302 59.5457 76.427 59.577L76.3176 60.8582C76.2121 60.827 76.0754 60.8113 75.9113 60.8113C75.4816 60.8113 75.1457 60.9285 74.8957 61.1551C74.6535 61.3738 74.5363 61.6824 74.5363 62.077V64.6238H73.177V59.6238H74.2082L74.4113 60.4676H74.4738C74.6301 60.1863 74.8371 59.9637 75.0988 59.7957C75.3684 59.6199 75.6535 59.5301 75.9582 59.5301Z" fill="black"/>
<path d="M78.4099 62.1082C78.4099 62.6082 78.492 62.991 78.6599 63.2488C78.824 63.4988 79.0896 63.6238 79.4568 63.6238C79.8201 63.6238 80.0818 63.4988 80.2381 63.2488C80.3943 62.991 80.4724 62.6082 80.4724 62.1082C80.4724 61.6199 80.3865 61.2488 80.2224 60.9988C80.0662 60.7488 79.8045 60.6238 79.4412 60.6238C79.074 60.6238 78.8084 60.7488 78.6443 60.9988C78.4881 61.2488 78.4099 61.6199 78.4099 62.1082ZM81.8631 62.1082C81.8631 62.9324 81.6482 63.5731 81.2224 64.0301C80.7928 64.491 80.199 64.7176 79.4412 64.7176C78.949 64.7176 78.5232 64.616 78.1599 64.4051C77.7928 64.1863 77.5115 63.8856 77.3162 63.4988C77.117 63.1043 77.0193 62.6395 77.0193 62.1082C77.0193 61.2957 77.2303 60.6668 77.6599 60.2176C78.0857 59.7606 78.6834 59.5301 79.4568 59.5301C79.9334 59.5301 80.3553 59.6356 80.7224 59.8426C81.0974 60.0535 81.3787 60.3543 81.5662 60.7488C81.7615 61.1356 81.8631 61.5887 81.8631 62.1082Z" fill="black"/>
<path d="M87.4829 63.6238C87.7094 63.6238 87.9907 63.5731 88.3266 63.4676V64.4832C87.9907 64.6395 87.5766 64.7176 87.0766 64.7176C86.5337 64.7176 86.1391 64.5848 85.8891 64.3113C85.6391 64.0301 85.5141 63.616 85.5141 63.0613V60.6551H84.8579V60.077L85.6235 59.6238L86.0141 58.5613H86.8735V59.6238H88.2797V60.6551H86.8735V63.0613C86.8735 63.2488 86.9243 63.3895 87.0297 63.4832C87.143 63.577 87.2954 63.6238 87.4829 63.6238Z" fill="black"/>
<path d="M91.4077 60.4988C91.1264 60.4988 90.8999 60.5926 90.7358 60.7801C90.5678 60.9598 90.4741 61.2176 90.4546 61.5613H92.3608C92.3608 61.2176 92.271 60.9598 92.0952 60.7801C91.9272 60.5926 91.6968 60.4988 91.4077 60.4988ZM91.6108 64.7176C90.7983 64.7176 90.1616 64.4949 89.7046 64.0457C89.2553 63.6004 89.0327 62.9676 89.0327 62.1551C89.0327 61.3231 89.2397 60.6785 89.6577 60.2176C90.0835 59.7606 90.6655 59.5301 91.4077 59.5301C92.1147 59.5301 92.6616 59.7332 93.0483 60.1395C93.4428 60.5379 93.6421 61.0887 93.6421 61.7957V62.4676H90.4233C90.4311 62.8543 90.5405 63.1551 90.7514 63.3738C90.9702 63.5926 91.2749 63.702 91.6733 63.702C91.9624 63.702 92.2436 63.6707 92.5171 63.6082C92.7866 63.5457 93.0678 63.4481 93.3608 63.3113V64.3582C93.1186 64.4832 92.8647 64.5731 92.5952 64.6238C92.3218 64.6863 91.9936 64.7176 91.6108 64.7176Z" fill="black"/>
<path d="M96.1104 64.6238H94.751V57.6707H96.1104V64.6238Z" fill="black"/>
<path d="M99.6057 60.4988C99.3245 60.4988 99.0979 60.5926 98.9339 60.7801C98.7659 60.9598 98.6721 61.2176 98.6526 61.5613H100.559C100.559 61.2176 100.469 60.9598 100.293 60.7801C100.125 60.5926 99.8948 60.4988 99.6057 60.4988ZM99.8089 64.7176C98.9964 64.7176 98.3596 64.4949 97.9026 64.0457C97.4534 63.6004 97.2307 62.9676 97.2307 62.1551C97.2307 61.3231 97.4378 60.6785 97.8557 60.2176C98.2815 59.7606 98.8635 59.5301 99.6057 59.5301C100.313 59.5301 100.86 59.7332 101.246 60.1395C101.641 60.5379 101.84 61.0887 101.84 61.7957V62.4676H98.6214C98.6292 62.8543 98.7385 63.1551 98.9495 63.3738C99.1682 63.5926 99.4729 63.702 99.8714 63.702C100.16 63.702 100.442 63.6707 100.715 63.6082C100.985 63.5457 101.266 63.4481 101.559 63.3113V64.3582C101.317 64.4832 101.063 64.5731 100.793 64.6238C100.52 64.6863 100.192 64.7176 99.8089 64.7176Z" fill="black"/>
<path d="M104.137 64.6238L102.23 59.6238H103.652L104.621 62.4676C104.722 62.7801 104.785 63.1238 104.808 63.4988H104.855C104.863 63.1668 104.933 62.8231 105.058 62.4676L106.012 59.6238H107.433L105.527 64.6238H104.137Z" fill="black"/>
<path d="M108.091 58.327C108.091 57.8895 108.341 57.6707 108.841 57.6707C109.33 57.6707 109.576 57.8895 109.576 58.327C109.576 58.5457 109.513 58.7137 109.388 58.827C109.263 58.9442 109.08 58.9988 108.841 58.9988C108.341 58.9988 108.091 58.7762 108.091 58.327ZM109.513 64.6238H108.154V59.6238H109.513V64.6238Z" fill="black"/>
<path d="M114.43 63.1395C114.43 63.6512 114.251 64.0418 113.899 64.3113C113.544 64.5848 113.009 64.7176 112.29 64.7176C111.934 64.7176 111.626 64.6902 111.368 64.6395C111.106 64.5887 110.868 64.5145 110.649 64.4207V63.2957C110.899 63.4129 111.18 63.5106 111.493 63.5926C111.813 63.6785 112.094 63.7176 112.337 63.7176C112.837 63.7176 113.087 63.5731 113.087 63.2801C113.087 63.1785 113.048 63.0926 112.977 63.0301C112.915 62.9598 112.798 62.8817 112.634 62.7957C112.477 62.7137 112.266 62.616 112.009 62.4988C111.622 62.3426 111.337 62.1981 111.149 62.0613C110.969 61.9168 110.841 61.7567 110.759 61.577C110.673 61.4012 110.634 61.1824 110.634 60.9207C110.634 60.4832 110.805 60.1473 111.149 59.9051C111.493 59.6551 111.981 59.5301 112.618 59.5301C113.219 59.5301 113.809 59.6629 114.384 59.9207L113.962 60.9051C113.712 60.8035 113.477 60.7176 113.259 60.6551C113.04 60.5848 112.821 60.5457 112.602 60.5457C112.196 60.5457 111.993 60.6551 111.993 60.8738C111.993 60.991 112.055 61.0926 112.18 61.1863C112.313 61.2801 112.602 61.4129 113.04 61.577C113.423 61.7449 113.704 61.8973 113.884 62.0301C114.071 62.1668 114.204 62.3231 114.29 62.4988C114.384 62.6785 114.43 62.8895 114.43 63.1395Z" fill="black"/>
<path d="M115.432 58.327C115.432 57.8895 115.682 57.6707 116.182 57.6707C116.67 57.6707 116.916 57.8895 116.916 58.327C116.916 58.5457 116.853 58.7137 116.728 58.827C116.603 58.9442 116.42 58.9988 116.182 58.9988C115.682 58.9988 115.432 58.7762 115.432 58.327ZM116.853 64.6238H115.494V59.6238H116.853V64.6238Z" fill="black"/>
<path d="M119.364 62.1082C119.364 62.6082 119.446 62.991 119.614 63.2488C119.778 63.4988 120.044 63.6238 120.411 63.6238C120.775 63.6238 121.036 63.4988 121.193 63.2488C121.349 62.991 121.427 62.6082 121.427 62.1082C121.427 61.6199 121.341 61.2488 121.177 60.9988C121.021 60.7488 120.759 60.6238 120.396 60.6238C120.028 60.6238 119.763 60.7488 119.599 60.9988C119.443 61.2488 119.364 61.6199 119.364 62.1082ZM122.818 62.1082C122.818 62.9324 122.603 63.5731 122.177 64.0301C121.747 64.491 121.153 64.7176 120.396 64.7176C119.903 64.7176 119.478 64.616 119.114 64.4051C118.747 64.1863 118.466 63.8856 118.271 63.4988C118.071 63.1043 117.974 62.6395 117.974 62.1082C117.974 61.2957 118.185 60.6668 118.614 60.2176C119.04 59.7606 119.638 59.5301 120.411 59.5301C120.888 59.5301 121.31 59.6356 121.677 59.8426C122.052 60.0535 122.333 60.3543 122.521 60.7488C122.716 61.1356 122.818 61.5887 122.818 62.1082Z" fill="black"/>
<path d="M128.561 64.6238H127.201V61.702C127.201 61.3504 127.131 61.0848 126.998 60.9051C126.873 60.7176 126.67 60.6238 126.389 60.6238C126.014 60.6238 125.736 60.7567 125.561 61.0145C125.393 61.2645 125.311 61.6824 125.311 62.2645V64.6238H123.951V59.6238H124.982L125.17 60.2645H125.248C125.404 60.0262 125.611 59.8426 125.873 59.7176C126.143 59.5926 126.443 59.5301 126.779 59.5301C127.361 59.5301 127.803 59.6863 128.107 59.9988C128.408 60.3113 128.561 60.7645 128.561 61.3582V64.6238Z" fill="black"/>
</svg>
