<svg width="341" height="94" viewBox="0 0 341 94" fill="none" xmlns="http://www.w3.org/2000/svg">
<mask id="mask0_2_14593" style="mask-type:luminance" maskUnits="userSpaceOnUse" x="37" y="26" width="27" height="68">
<path d="M37 26H64V93.4688H37V26Z" fill="white"/>
</mask>
<g mask="url(#mask0_2_14593)">
<path d="M37 26H64V93.6964H37V26Z" fill="#FF1616"/>
</g>
<mask id="mask1_2_14593" style="mask-type:luminance" maskUnits="userSpaceOnUse" x="273" y="0" width="27" height="93">
<path d="M273 0H300V92.4479H273V0Z" fill="white"/>
</mask>
<g mask="url(#mask1_2_14593)">
<path d="M273 0H300.296V92.1719H273V0Z" fill="#FF1616"/>
</g>
<mask id="mask2_2_14593" style="mask-type:luminance" maskUnits="userSpaceOnUse" x="273" y="66" width="68" height="27">
<path d="M273 66H340.448V93H273V66Z" fill="white"/>
</mask>
<g mask="url(#mask2_2_14593)">
<mask id="mask3_2_14593" style="mask-type:luminance" maskUnits="userSpaceOnUse" x="273" y="66" width="68" height="27">
<path d="M331.151 66H273.031V92.9461H340.5L331.151 66Z" fill="white"/>
</mask>
<g mask="url(#mask3_2_14593)">
<path d="M340.5 66V93H273V66H340.5Z" fill="#FF1616"/>
</g>
</g>
<mask id="mask4_2_14593" style="mask-type:luminance" maskUnits="userSpaceOnUse" x="22" y="0" width="277" height="27">
<path d="M22 0H298.708V27H22V0Z" fill="white"/>
</mask>
<g mask="url(#mask4_2_14593)">
<path d="M22 0H298.771V26.9066H22V0Z" fill="#FF1616"/>
</g>
<mask id="mask5_2_14593" style="mask-type:luminance" maskUnits="userSpaceOnUse" x="0" y="0" width="46" height="28">
<path d="M0 0H45.42V28H0V0Z" fill="white"/>
</mask>
<g mask="url(#mask5_2_14593)">
<mask id="mask6_2_14593" style="mask-type:luminance" maskUnits="userSpaceOnUse" x="0" y="0" width="45" height="28">
<path d="M22.4939 0L44.9929 27.7247H0L22.4939 0Z" fill="white"/>
</mask>
<g mask="url(#mask6_2_14593)">
<path d="M0 0H45.42V27.5516H0V0Z" fill="#FF1616"/>
</g>
</g>
<path d="M85.3563 56.7313L82.7522 65.2105H91.5022L88.8772 56.7313C88.7209 56.398 88.5647 56.1636 88.398 56.023C88.2313 55.8719 88.0334 55.7938 87.8147 55.7938H86.4188C86.1949 55.7938 86.0022 55.8719 85.8355 56.023C85.6688 56.1636 85.5074 56.398 85.3563 56.7313ZM82.1897 83.148C82.1897 83.8563 82.0282 84.3719 81.7105 84.6896C81.4032 84.9969 80.898 85.148 80.1897 85.148H72.0022C71.2938 85.148 70.7782 84.9969 70.4605 84.6896C70.1376 84.3719 69.9813 83.8563 69.9813 83.148V68.4396C69.9813 67.3303 70.1532 66.0542 70.5022 64.6063C70.8615 63.148 71.4188 61.4553 72.1688 59.523L77.0022 46.8771C77.2209 46.2521 77.5647 45.7938 78.023 45.5021C78.4917 45.2 79.1063 45.0438 79.8563 45.0438H94.8355C95.5438 45.0438 96.1272 45.2 96.5855 45.5021C97.0542 45.7938 97.4032 46.2521 97.6272 46.8771L102.46 59.523C103.21 61.4553 103.757 63.148 104.106 64.6063C104.466 66.0542 104.648 67.3303 104.648 68.4396V83.148C104.648 83.8563 104.487 84.3719 104.169 84.6896C103.846 84.9969 103.335 85.148 102.627 85.148H94.2313C93.4813 85.148 92.924 84.9969 92.5647 84.6896C92.2157 84.3719 92.0438 83.8563 92.0438 83.148V75.3355H82.1897V83.148Z" fill="white"/>
<path d="M145.641 74.6271C145.641 76.3355 145.38 77.8875 144.87 79.273C144.37 80.6636 143.479 81.8511 142.203 82.8355C140.922 83.825 139.167 84.5959 136.932 85.148C134.708 85.7 131.87 85.9813 128.411 85.9813C124.963 85.9813 122.125 85.7 119.891 85.148C117.667 84.5959 115.911 83.825 114.62 82.8355C113.338 81.8511 112.453 80.6636 111.953 79.273C111.453 77.8875 111.203 76.3355 111.203 74.6271V47.0438C111.203 46.3355 111.359 45.8303 111.682 45.523C112 45.2053 112.505 45.0438 113.203 45.0438H121.953C122.661 45.0438 123.167 45.2053 123.474 45.523C123.792 45.8303 123.953 46.3355 123.953 47.0438V72.4396C123.953 73.1896 124.229 73.8146 124.786 74.3146C125.354 74.8146 126.604 75.0646 128.536 75.0646C130.495 75.0646 131.75 74.8146 132.307 74.3146C132.875 73.8146 133.161 73.1896 133.161 72.4396V47.0438C133.161 46.3355 133.312 45.8303 133.62 45.523C133.937 45.2053 134.453 45.0438 135.161 45.0438H143.62C144.328 45.0438 144.838 45.2053 145.161 45.523C145.479 45.8303 145.641 46.3355 145.641 47.0438V74.6271Z" fill="white"/>
<path d="M173.816 85.148H155.045C154.337 85.148 153.821 84.9969 153.503 84.6896C153.196 84.3719 153.045 83.8563 153.045 83.148V47.0438C153.045 46.3355 153.196 45.8303 153.503 45.523C153.821 45.2053 154.337 45.0438 155.045 45.0438H173.816C178.451 45.0438 181.899 45.9761 184.149 47.8355C186.399 49.6844 187.524 52.5386 187.524 56.398V73.7938C187.524 77.6584 186.399 80.5178 184.149 82.3771C181.899 84.2261 178.451 85.148 173.816 85.148ZM165.691 55.6688V74.6271H172.316C173.201 74.6271 173.858 74.4084 174.274 73.9605C174.701 73.5021 174.92 72.8146 174.92 71.898V58.3563C174.92 57.4292 174.701 56.7469 174.274 56.3146C173.858 55.8875 173.201 55.6688 172.316 55.6688H165.691Z" fill="white"/>
<path d="M195.7 85.148C194.991 85.148 194.476 84.9969 194.158 84.6896C193.851 84.3719 193.7 83.8563 193.7 83.148V76.523C193.7 75.8146 193.851 75.3042 194.158 74.9813C194.476 74.6636 194.991 74.5021 195.7 74.5021H201.22V55.7938H195.7C194.991 55.7938 194.476 55.6375 194.158 55.3146C193.851 54.9969 193.7 54.4917 193.7 53.7938V47.0438C193.7 46.3355 193.851 45.8303 194.158 45.523C194.476 45.2053 194.991 45.0438 195.7 45.0438H219.429C220.137 45.0438 220.642 45.2053 220.95 45.523C221.267 45.8303 221.429 46.3355 221.429 47.0438V53.7938C221.429 54.4917 221.267 54.9969 220.95 55.3146C220.642 55.6375 220.137 55.7938 219.429 55.7938H214.033V74.5021H219.429C220.137 74.5021 220.642 74.6636 220.95 74.9813C221.267 75.3042 221.429 75.8146 221.429 76.523V83.148C221.429 83.8563 221.267 84.3719 220.95 84.6896C220.642 84.9969 220.137 85.148 219.429 85.148H195.7Z" fill="white"/>
<path d="M262.272 74.6271C262.272 76.3355 262.011 77.8876 261.501 79.273C261.001 80.6636 260.11 81.8511 258.834 82.8355C257.553 83.825 255.792 84.5959 253.542 85.148C251.292 85.7 248.443 85.9813 245.001 85.9813C241.542 85.9813 238.678 85.7 236.417 85.148C234.152 84.5959 232.376 83.825 231.084 82.8355C229.803 81.8511 228.917 80.6636 228.417 79.273C227.917 77.8876 227.667 76.3355 227.667 74.6271V55.6271C227.667 53.9188 227.917 52.3719 228.417 50.9813C228.917 49.5803 229.803 48.3771 231.084 47.3771C232.376 46.3771 234.152 45.6011 236.417 45.0438C238.678 44.4917 241.542 44.2105 245.001 44.2105C248.443 44.2105 251.292 44.4917 253.542 45.0438C255.792 45.6011 257.553 46.3771 258.834 47.3771C260.11 48.3771 261.001 49.5803 261.501 50.9813C262.011 52.3719 262.272 53.9188 262.272 55.6271V74.6271ZM240.313 72.6063C240.313 73.3563 240.589 73.9813 241.147 74.4813C241.699 74.9813 242.985 75.2313 245.001 75.2313C247.001 75.2313 248.277 74.9813 248.834 74.4813C249.386 73.9813 249.667 73.3563 249.667 72.6063V57.6271C249.667 56.9188 249.386 56.3146 248.834 55.8146C248.277 55.3146 247.001 55.0646 245.001 55.0646C242.985 55.0646 241.699 55.3146 241.147 55.8146C240.589 56.3146 240.313 56.9188 240.313 57.6271V72.6063Z" fill="white"/>
</svg>
